<?xml version="1.0" encoding="UTF-8" standalone="no"?>
<svg
   viewBox="0 0 150 150"
   width="150"
   height="150"
   version="1.1"
   id="svg9"
   sodipodi:docname="logo.svg"
   xml:space="preserve"
   inkscape:version="1.4.3 (0d15f75042, 2025-12-25)"
   inkscape:export-filename="logo.svg"
   inkscape:export-xdpi="96"
   inkscape:export-ydpi="96"
   xmlns:inkscape="http://www.inkscape.org/namespaces/inkscape"
   xmlns:sodipodi="http://sodipodi.sourceforge.net/DTD/sodipodi-0.dtd"
   xmlns:xlink="http://www.w3.org/1999/xlink"
   xmlns="http://www.w3.org/2000/svg"
   xmlns:svg="http://www.w3.org/2000/svg"><defs
     id="defs9"><linearGradient
       id="linearGradient1"
       inkscape:collect="always"><stop
         style="stop-color:#000000;stop-opacity:1;"
         offset="0"
         id="stop1" /><stop
         style="stop-color:#000000;stop-opacity:0;"
         offset="1"
         id="stop2" /></linearGradient><linearGradient
       id="swatch14"
       inkscape:swatch="solid"><stop
         style="stop-color:#ffffff;stop-opacity:1;"
         offset="0"
         id="stop14" /></linearGradient><linearGradient
       id="linearGradient11"
       inkscape:collect="always"><stop
         style="stop-color:#054b4b;stop-opacity:1;"
         offset="0"
         id="stop11" /><stop
         style="stop-color:#054b4b;stop-opacity:0;"
         offset="1"
         id="stop12" /></linearGradient><inkscape:path-effect
       effect="fill_between_many"
       method="originald"
       linkedpaths="#path16,0,1"
       id="path-effect19"
       is_visible="true"
       lpeversion="0"
       join="true"
       close="true"
       autoreverse="true" /><radialGradient
       inkscape:collect="always"
       xlink:href="#linearGradient11"
       id="radialGradient12"
       cx="75.089943"
       cy="6.6436224"
       fx="75.089943"
       fy="6.6436224"
       r="60.917294"
       gradientTransform="matrix(-1.2622049,0.01493515,-0.00795312,-0.6721341,169.92167,27.744574)"
       gradientUnits="userSpaceOnUse" /><radialGradient
       inkscape:collect="always"
       xlink:href="#linearGradient1"
       id="radialGradient2"
       cx="75.329315"
       cy="40.037598"
       fx="75.329315"
       fy="40.037598"
       r="60.61182"
       gradientTransform="matrix(1,0,0,0.46698546,0,21.340623)"
       gradientUnits="userSpaceOnUse" /></defs><sodipodi:namedview
     id="namedview9"
     pagecolor="#ffffff"
     bordercolor="#000000"
     borderopacity="0.25"
     inkscape:showpageshadow="2"
     inkscape:pageopacity="0.0"
     inkscape:pagecheckerboard="0"
     inkscape:deskcolor="#d1d1d1"
     inkscape:zoom="4.57"
     inkscape:cx="73.851204"
     inkscape:cy="60.940919"
     inkscape:window-width="1872"
     inkscape:window-height="1044"
     inkscape:window-x="0"
     inkscape:window-y="0"
     inkscape:window-maximized="1"
     inkscape:current-layer="g6" /><!-- Arrière-plan transparent (rien à déclarer) --><!-- Bosses des yeux --><!-- Visage principal très rond (Squishy) --><!-- Joues Kawaï (Pastel rose doux) --><!-- Pupilles (Gris très foncé, plus doux que le noir pur) --><!-- Reflets dans les yeux (Effet Kawaï brillant) --><!-- Oeil gauche --><!-- Oeil droit --><!-- Bouche (Petit sourire confiant) --><g
     id="g6"
     transform="matrix(1.3379713,0,0,1.3379713,-26.005892,-13.541949)"><g
       id="g4"
       inkscape:label="logo-img4"
       transform="translate(24.795514,23.9108)"><ellipse
         style="font-variation-settings:'wght' 700;display:inline;fill:#a2d1c7;fill-opacity:0.511202;stroke:#054b4b;stroke-width:5.69701;stroke-linecap:round;stroke-linejoin:round;stroke-dasharray:none;stroke-dashoffset:0;stroke-opacity:1;paint-order:markers fill stroke"
         id="path1"
         cx="50"
         cy="50"
         rx="42.727554"
         ry="42.727551" /><circle
         style="font-variation-settings:'wght' 700;display:inline;fill:none;fill-opacity:0.511202;stroke:#0fd1bc;stroke-width:2.397;stroke-linecap:round;stroke-linejoin:round;stroke-dasharray:none;stroke-dashoffset:0;stroke-opacity:1;paint-order:markers fill stroke"
         id="ellipse6"
         cx="50"
         cy="50"
         r="41" /><g
         id="g1"
         transform="matrix(0.66607215,0,0,0.68901327,15.444354,12.572509)"><g
           id="g3"
           transform="translate(0.89648847,21.587034)"><path
             id="ellipse2"
             style="display:inline;fill:#0fd1bc;stroke:#054b4b;stroke-width:7.38067;stroke-linecap:square;stroke-dasharray:none;stroke-opacity:1;paint-order:fill markers stroke"
             d="m 105.71133,51.687189 c 0,24.296248 -24.5026,43.992249 -54.728086,43.992249 -30.225485,0 -54.7280832,-19.696001 -54.728084,-43.992249 0,-24.296249 24.362229,-44.5802633 54.587716,-44.5802633 30.225486,0 54.868454,20.2840143 54.868454,44.5802633 z"
             inkscape:label="corps"
             sodipodi:nodetypes="sssss" /><g
             id="g10"
             inkscape:label="yeux"
             style="stroke-width:7.38067;stroke-dasharray:none"
             transform="matrix(1.1394014,0,0,1.1394014,-7.1312585,-6.3380409)"><circle
               cx="31.004414"
               cy="22.130274"
               r="18"
               fill="#0fd1bc"
               id="circle1"
               style="stroke:none;stroke-width:7.38067;stroke-dasharray:none;stroke-opacity:1" /><circle
               cx="71.00441"
               cy="22.130274"
               r="18"
               fill="#0fd1bc"
               id="circle2"
               style="stroke:none;stroke-width:7.38067;stroke-dasharray:none;stroke-opacity:1" /><circle
               cx="31.004414"
               cy="24.130274"
               r="7.5"
               fill="#1a2b3c"
               id="circle4"
               style="fill:#054b4b;fill-opacity:1;stroke-width:7.38067;stroke-dasharray:none" /><g
               id="g5"><circle
                 cx="71.00441"
                 cy="24.130274"
                 r="7.5"
                 fill="#1a2b3c"
                 id="circle5"
                 style="fill:#054b4b;fill-opacity:1;stroke-width:7.38067;stroke-dasharray:none" /><circle
                 cx="73.00441"
                 cy="26.630274"
                 r="1"
                 fill="#ffffff"
                 id="circle9"
                 style="display:inline;fill:#a2f8f0;fill-opacity:1;stroke-width:7.38067;stroke-dasharray:none" /></g><path
               style="font-variation-settings:'wght' 700;fill:none;stroke:#054b4b;stroke-width:5.17825;stroke-linecap:round;stroke-linejoin:bevel;stroke-dasharray:none;stroke-opacity:1;paint-order:fill markers stroke"
               d="m 12.673186,28.255984 c 0,0 -0.80731,-5.609059 0.679007,-10.88039 1.681071,-5.962039 6.549602,-12.0258908 16.668738,-12.079307 5.169714,-0.02729 12.760337,1.0173093 17.022921,7.350785"
               id="path10"
               sodipodi:nodetypes="cssc" /><use
               x="0"
               y="0"
               xlink:href="#path10"
               id="use4"
               transform="matrix(-1,0,0,1,101.86619,-0.19708998)"
               style="stroke:#054b4b;stroke-opacity:1" /></g><use
             x="0"
             y="0"
             xlink:href="#path4"
             id="use5"
             transform="translate(65.309881)"
             style="stroke-width:7.38067;stroke-dasharray:none"
             inkscape:label="rose" /><ellipse
             style="font-variation-settings:'wght' 700;opacity:1;fill:#e9afaf;fill-opacity:1;stroke:none;stroke-width:0;stroke-linecap:round;stroke-linejoin:bevel;stroke-dasharray:none;stroke-opacity:1;paint-order:fill markers stroke"
             id="path4"
             cx="23.362347"
             cy="36.80854"
             rx="6.0279651"
             ry="3.1377552"
             transform="matrix(1.1394014,0,0,1.1394014,-7.1312581,-6.3380403)"
             inkscape:label="rose" /><path
             d="m 39.322234,36.912392 q 11.394014,11.394015 22.788029,0"
             fill="none"
             stroke="#1a2b3c"
             stroke-width="3.5"
             stroke-linecap="round"
             id="path9"
             inkscape:label="bouche"
             style="stroke:#054b4b;stroke-width:6.72763;stroke-dasharray:none;stroke-opacity:1" /><g
             id="carte-planning"
             transform="matrix(1.2795941,0,0,1.2795941,-12.196684,-30.598591)"
             style="display:inline;stroke-width:3.94322;stroke-dasharray:none"><!-- Le bloc d'événement (Jaune pastel doux) --><rect
               x="-5.5323219"
               y="65.626968"
               width="109.8146"
               height="35.432713"
               rx="8.2360935"
               fill="#ffeaa7"
               id="rect7"
               style="display:inline;stroke:#ecbd00;stroke-width:5.19708;stroke-dasharray:none;stroke-opacity:1" /><!-- Petites lignes subtiles symbolisant le texte d'un événement --><g
               id="g8"
               inkscape:label="lines"><line
                 x1="43.119839"
                 y1="76.177055"
                 x2="97.050125"
                 y2="76.177055"
                 stroke="#f1c40f"
                 stroke-width="2.31302"
                 stroke-linecap="round"
                 opacity="0.4"
                 id="line7"
                 style="opacity:1;stroke:#6b5300;stroke-width:4.84879;stroke-dasharray:none;stroke-opacity:0.691424" /><line
                 x1="43.049889"
                 y1="91.365013"
                 x2="92.256287"
                 y2="91.365013"
                 stroke="#f1c40f"
                 stroke-width="3"
                 stroke-linecap="round"
                 opacity="0.4"
                 id="line4"
                 style="display:inline;opacity:1;stroke:#6b5300;stroke-width:5.05012;stroke-dasharray:none;stroke-opacity:0.691424" /><line
                 x1="43.334579"
                 y1="83.771034"
                 x2="86.754715"
                 y2="83.771034"
                 stroke="#f1c40f"
                 stroke-width="3"
                 stroke-linecap="round"
                 opacity="0.4"
                 id="line8"
                 style="opacity:1;stroke:#6b5300;stroke-width:4.74391;stroke-dasharray:none;stroke-opacity:0.691424" /><line
                 x1="42.298603"
                 y1="75.496376"
                 x2="96.228874"
                 y2="75.496376"
                 stroke="#f1c40f"
                 stroke-width="2.31302"
                 stroke-linecap="round"
                 opacity="0.4"
                 id="line9"
                 style="opacity:1;stroke:#ecbd00;stroke-width:4.84879;stroke-dasharray:none;stroke-opacity:1" /><line
                 x1="42.228653"
                 y1="90.684334"
                 x2="91.435036"
                 y2="90.684334"
                 stroke="#f1c40f"
                 stroke-width="3"
                 stroke-linecap="round"
                 opacity="0.4"
                 id="line10"
                 style="display:inline;opacity:1;stroke:#ecbd00;stroke-width:5.05012;stroke-dasharray:none;stroke-opacity:1" /><line
                 x1="42.513344"
                 y1="83.090355"
                 x2="85.933464"
                 y2="83.090355"
                 stroke="#f1c40f"
                 stroke-width="3"
                 stroke-linecap="round"
                 opacity="0.4"
                 id="line11"
                 style="opacity:1;stroke:#ecbd00;stroke-width:4.74391;stroke-dasharray:none;stroke-opacity:1" /></g><g
               style="fill:none;stroke-width:1.87347;stroke-dasharray:none"
               id="g9"
               transform="matrix(1.850958,0,0,1.850958,-19.017725,80.818607)"><path
                 id="Vector"
                 d="m 13.471906,-1.9448522 h 11.63433 m -11.63433,0 v 6.3990268 c 0,0.8144758 0,1.2215319 0.15851,1.5326048 0.139423,0.2736248 0.361741,0.4963495 0.635387,0.6357434 0.310782,0.1583723 0.717831,0.1583723 1.530722,0.1583723 h 6.985099 c 0.812876,0 1.21935,0 1.530132,-0.1583723 0.273625,-0.1393939 0.496713,-0.3621186 0.636107,-0.6357434 0.158373,-0.3107821 0.158373,-0.7172565 0.158373,-1.5301325 v -6.4014991 m -11.63433,0 v -0.5815711 c 0,-0.814483 0,-1.2220263 0.15851,-1.5331138 0.139423,-0.2736467 0.361741,-0.4959642 0.635387,-0.6353871 0.311088,-0.1585105 0.718631,-0.1585105 1.533114,-0.1585105 h 0.581571 m 8.725748,2.9085825 v -0.5839634 c 0,-0.8128906 0,-1.2199394 -0.158373,-1.5307215 -0.139394,-0.2736467 -0.362482,-0.4959642 -0.636107,-0.6353871 -0.311073,-0.1585105 -0.717765,-0.1585105 -1.532241,-0.1585105 h -0.581862 m -5.817165,0 h 5.817165 M 21.470508,0.96373017 18.561925,3.8723126 17.107634,2.4180214"
                 stroke="#000000"
                 stroke-width="2"
                 stroke-linecap="round"
                 stroke-linejoin="round"
                 sodipodi:nodetypes="cccsscssccsccsccsccsccscccccc"
                 style="fill:none;stroke:#efbc00;stroke-width:1.87347;stroke-dasharray:none;stroke-opacity:1"
                 inkscape:highlight-color="#f9da6a" /></g><g
               style="fill:none;stroke-width:1.87347;stroke-dasharray:none"
               id="g7"
               transform="matrix(1.850958,0,0,1.850958,-19.017725,80.818607)"><path
                 id="path7"
                 d="m 13.915849,-1.5773462 h 11.63433 m -11.63433,0 v 6.3990268 c 0,0.8144758 0,1.2215319 0.15851,1.5326048 0.139423,0.2736248 0.361741,0.4963495 0.635387,0.6357434 0.310782,0.1583723 0.717831,0.1583723 1.530722,0.1583723 h 6.985099 c 0.812876,0 1.21935,0 1.530132,-0.1583723 0.273625,-0.1393939 0.496713,-0.3621186 0.636107,-0.6357434 0.158373,-0.3107821 0.158373,-0.7172565 0.158373,-1.5301325 v -6.4014991 m -11.63433,0 v -0.5815711 c 0,-0.814483 0,-1.2220263 0.15851,-1.5331138 0.139423,-0.2736467 0.361741,-0.4959642 0.635387,-0.6353871 0.311088,-0.1585105 0.718631,-0.1585105 1.533114,-0.1585105 h 0.581571 m 8.725748,2.9085825 v -0.5839634 c 0,-0.8128906 0,-1.2199394 -0.158373,-1.5307215 -0.139394,-0.2736467 -0.362482,-0.4959642 -0.636107,-0.6353871 -0.311073,-0.1585105 -0.717765,-0.1585105 -1.532241,-0.1585105 h -0.581862 m -5.817165,0 h 5.817165 M 21.914451,1.3312362 19.005868,4.2398186 17.551577,2.7855274"
                 stroke="#000000"
                 stroke-width="2"
                 stroke-linecap="round"
                 stroke-linejoin="round"
                 sodipodi:nodetypes="cccsscssccsccsccsccsccscccccc"
                 style="display:inline;fill:none;stroke:#6b5300;stroke-width:1.87347;stroke-dasharray:none;stroke-opacity:0.671794"
                 inkscape:highlight-color="#f9da6a"
                 inkscape:label="check" /><path
                 id="path8"
                 d="m 13.471906,-1.9448522 h 11.63433 m -11.63433,0 v 6.3990268 c 0,0.8144758 0,1.2215319 0.15851,1.5326048 0.139423,0.2736248 0.361741,0.4963495 0.635387,0.6357434 0.310782,0.1583723 0.717831,0.1583723 1.530722,0.1583723 h 6.985099 c 0.812876,0 1.21935,0 1.530132,-0.1583723 0.273625,-0.1393939 0.496713,-0.3621186 0.636107,-0.6357434 0.158373,-0.3107821 0.158373,-0.7172565 0.158373,-1.5301325 v -6.4014991 m -11.63433,0 v -0.5815711 c 0,-0.814483 0,-1.2220263 0.15851,-1.5331138 0.139423,-0.2736467 0.361741,-0.4959642 0.635387,-0.6353871 0.311088,-0.1585105 0.718631,-0.1585105 1.533114,-0.1585105 h 0.581571 m 8.725748,2.9085825 v -0.5839634 c 0,-0.8128906 0,-1.2199394 -0.158373,-1.5307215 -0.139394,-0.2736467 -0.362482,-0.4959642 -0.636107,-0.6353871 -0.311073,-0.1585105 -0.717765,-0.1585105 -1.532241,-0.1585105 h -0.581862 m -5.817165,0 h 5.817165 M 21.470508,0.96373017 18.561925,3.8723126 17.107634,2.4180214"
                 stroke="#000000"
                 stroke-width="2"
                 stroke-linecap="round"
                 stroke-linejoin="round"
                 sodipodi:nodetypes="cccsscssccsccsccsccsccscccccc"
                 style="fill:none;stroke:#efbc00;stroke-width:1.87347;stroke-dasharray:none;stroke-opacity:1"
                 inkscape:highlight-color="#f9da6a"
                 inkscape:label="check" /></g></g><g
             id="g2"
             inkscape:label="pate"
             transform="matrix(1.1394014,0,0,1.1394014,-4.5313044,-0.89449119)"
             style="display:inline"><path
               inkscape:original-d="M 0,0"
               inkscape:path-effect="#path-effect19"
               d="m 8.4441696,45.249703 c -0.036412,2.197297 0.2763249,7.859699 -2.5955458,11.536981 -5.73914656,7.348682 11.2603182,9.351417 6.9450882,-0.172528 -1.402886,-3.096245 -0.582234,-4.134807 1.963492,-4.485618 2.505616,-0.345283 4.557889,3.148602 4.294475,6.24223 -1.120172,13.155683 17.81804,3.341084 6.157701,-2.625584 -1.211648,-0.620008 -6.087146,-5.337427 -3.647057,-6.641122 1.926509,-1.029299 5.943844,1.858961 8.182436,4.693072 4.223991,5.347671 12.696253,-6.887925 3.15847,-6.737995 -5.20256,0.08178 -6.863315,-1.457416 -6.863315,-1.457416 z"
               id="path19"
               style="fill:#0fd1bc;fill-opacity:1"
               transform="matrix(1.2936925,0,0,1.2938549,-8.8047993,-14.568003)" /><path
               style="font-variation-settings:'wght' 700;display:inline;fill:#0fd1bc;fill-opacity:1;stroke:#054b4b;stroke-width:2.96647;stroke-linecap:round;stroke-linejoin:round;stroke-dasharray:none;stroke-opacity:1;paint-order:markers fill stroke"
               d="m 17.155472,50.279992 c -0.685029,2.095454 -2.060749,7.607799 -5.900703,10.337599 -7.6737641,5.455232 8.023091,12.073582 6.706051,1.754551 -0.428171,-3.354729 0.665494,-4.123054 3.208688,-3.755481 2.503123,0.361782 3.435903,4.277055 2.268147,7.16865 -4.965895,12.296537 16.085249,8.127083 6.677364,-0.813706 -0.977591,-0.929055 -4.253655,-6.797199 -1.529747,-7.371912 2.150592,-0.45375 5.145549,3.424408 6.452081,6.758971 2.46529,6.291972 14.203955,-3.090525 5.020188,-5.583445 -5.009456,-1.35981 -6.145425,-3.29381 -6.145425,-3.29381"
               id="path16"
               sodipodi:nodetypes="cssssssssc"
               transform="matrix(1.2396571,-0.35766822,0.38277846,1.2398127,-38.393641,-12.223259)" /></g><use
             x="0"
             y="0"
             xlink:href="#path16"
             id="use1"
             transform="matrix(-1.1394014,0,0,1.1394014,106.46689,-1.2563448)"
             inkscape:label="pateClone"
             style="stroke:#054b4b;stroke-opacity:1" /></g></g></g><path
       d="m 24.094522,58.140881 q -1.802948,-0.660134 -2.51277,-2.351286 -0.709822,-1.691151 -0.115701,-3.313804 0.594122,-1.622654 2.222631,-2.440605 1.613485,-0.823453 3.416433,-0.163318 1.247039,0.456593 1.987088,1.460223 0.725024,0.998128 0.849716,2.100186 0.115168,1.081532 -0.247906,2.073154 -0.363074,0.991621 -1.18493,1.747109 -0.83688,0.749986 -2.019976,1.049471 -1.19262,0.27896 -2.394585,-0.16113 z m 2.231503,-2.744053 q 0.536626,-0.34876 0.718163,-0.84457 0.181537,-0.495811 -0.01254,-1.12915 -0.194077,-0.633339 -0.930281,-0.902894 -0.736204,-0.269555 -1.267328,0.06418 -0.531125,0.333734 -0.729165,0.874619 -0.19804,0.540884 0.007,1.144174 0.205079,0.60329 0.941283,0.872845 0.721179,0.264054 1.272829,-0.0792 z m 7.768641,-9.038275 q -0.904616,1.339077 -2.512329,1.546674 -1.612016,0.185382 -3.070416,-0.799843 L 26.191739,45.53798 q -0.318197,-0.214958 -0.45508,-0.326739 -0.127927,-0.125038 -0.264103,-0.352195 -0.232579,-0.427442 0.340643,-1.275966 0.626961,-0.928073 1.238251,-0.746821 0.265871,0.06376 0.729907,0.377238 L 30.10154,44.7809 q 0.543585,0.367221 1.054525,0.268284 0.519897,-0.112195 0.869204,-0.629264 0.358263,-0.530327 0.255025,-1.063482 -0.09428,-0.546413 -0.611351,-0.89572 l -2.346698,-1.585317 q -0.304938,-0.206001 -0.441822,-0.317782 -0.141185,-0.133996 -0.268405,-0.37441 -0.228277,-0.405228 0.344945,-1.253752 0.564265,-0.835265 1.047629,-0.779052 0.261569,0.04154 0.429623,0.135763 0.163754,0.07201 0.468692,0.278008 l 4.693397,3.170634 q 0.29168,0.197045 0.432865,0.33104 0.136883,0.111781 0.250845,0.343239 0.210364,0.431744 -0.344945,1.253751 -0.546352,0.808749 -0.989941,0.779406 -0.314955,-0.01968 -0.633151,-0.234639 0.05698,0.115729 0.103945,0.417779 0.04696,0.302051 0.04985,0.555016 -0.01284,0.647824 -0.371108,1.178151 z m 5.720027,-3.883891 -6.27502,-6.923471 q -0.247133,-0.272671 -0.353471,-0.413824 -0.09448,-0.151897 -0.161925,-0.393085 -0.124139,-0.470521 0.50419,-1.040001 0.628328,-0.569479 0.992152,-0.596914 0.364933,-0.05003 0.679866,0.225968 -0.108234,-1.02478 0.852042,-1.895117 0.972131,-0.881081 2.664922,-0.752604 1.692791,0.128477 2.78877,1.337714 1.09598,1.209236 1.057903,2.906469 -0.02622,1.686487 -0.998352,2.567569 -0.972132,0.881082 -1.905042,0.733301 l 2.17047,2.394762 q 0.247133,0.272671 0.341616,0.424569 0.106339,0.141153 0.161925,0.393085 0.07819,0.253044 -0.07074,0.517583 -0.148925,0.26454 -0.516438,0.597632 -0.367513,0.333092 -0.657232,0.466113 -0.277864,0.122277 -0.523135,0.04226 -0.233415,-0.09076 -0.37532,-0.199677 -0.130049,-0.119663 -0.377182,-0.392334 z m -2.713505,-7.711317 q 0.01744,0.567225 0.361278,0.946593 0.343837,0.379369 0.90662,0.452328 0.563893,0.05036 0.990683,-0.336457 0.438644,-0.397561 0.455658,-0.974421 0.02887,-0.587604 -0.325712,-0.978827 -0.354582,-0.391224 -0.918475,-0.441583 -0.574639,-0.06221 -1.036994,0.356837 -0.4505,0.408306 -0.433058,0.97553 z m 3.267864,-9.936841 q -0.194437,-0.31244 -0.273844,-0.470321 -0.07428,-0.179919 -0.105992,-0.442861 -0.03807,-0.485129 0.831327,-1.026169 0.828644,-0.515679 1.26066,-0.275709 0.235481,0.136135 0.35051,0.290693 0.128614,0.146105 0.32305,0.458544 l 3.914089,6.289546 q 0.304335,0.489035 0.470378,0.574156 0.15759,0.07154 0.429277,-0.09754 0.285271,-0.177529 0.397268,-0.209537 0.103544,-0.04559 0.298564,-0.03504 0.381585,0.0075 0.871903,0.795412 0.532587,0.855813 0.379253,1.215069 -0.201025,0.464315 -1.633735,1.129771 -1.130531,0.515096 -1.789574,0.152575 -0.794596,-0.428927 -1.699147,-1.882451 z m 13.34745,-2.994202 q -0.249491,-0.865902 0.832013,-1.307006 0.57779,-0.235659 0.895533,-0.261576 0.317742,-0.02592 0.512086,0.154012 0.209159,0.173887 0.296484,0.345626 0.0961,0.150881 0.235076,0.491629 l 2.114883,5.185294 q 0.138978,0.340747 0.181858,0.530614 0.05165,0.169009 0.03858,0.433533 -0.05031,0.469789 -0.865138,0.802128 -0.800017,0.326296 -1.160057,0.248507 -0.351268,-0.09865 -0.552819,-0.465712 -0.227905,1.008775 -1.516821,1.534475 -1.274101,0.519657 -2.84778,-0.203592 -1.573678,-0.723248 -2.2021,-2.264021 -0.634465,-1.555588 -0.0095,-3.158314 0.633775,-1.623584 1.952321,-2.161369 0.503715,-0.205446 0.991048,-0.196855 0.487334,0.0086 0.716768,0.10509 0.223392,0.08168 0.387523,0.187537 z m -1.439508,4.181285 q 0.199403,0.488899 0.747745,0.731802 0.542298,0.228087 1.090458,0.0045 0.54816,-0.223573 0.740574,-0.768602 0.20723,-0.551072 0.01387,-1.025156 -0.199404,-0.488899 -0.724157,-0.758702 -0.509939,-0.275845 -1.102544,-0.03414 -0.577789,0.235658 -0.778977,0.801545 -0.186372,0.559844 0.01303,1.048743 z m 14.241461,2.305279 -0.903511,-9.300215 q -0.03558,-0.366276 -0.03668,-0.542998 0.01483,-0.17827 0.104648,-0.41205 0.181178,-0.451635 1.025204,-0.533632 0.844027,-0.082 1.152337,0.113106 0.322688,0.17763 0.410688,0.58704 0.524701,-0.886892 1.814628,-1.012207 1.305852,-0.126863 2.587506,0.986425 1.281655,1.113288 1.43946,2.737641 0.157805,1.624352 -0.885595,2.963518 -1.027474,1.337619 -2.333327,1.464482 -1.305852,0.126863 -1.966245,-0.548446 l 0.312516,3.216856 q 0.03558,0.366275 0.02075,0.544545 0.0011,0.176722 -0.104648,0.412049 -0.08827,0.249706 -0.365636,0.373104 -0.277368,0.123398 -0.771044,0.171358 -0.493676,0.04796 -0.805534,-0.0182 -0.295933,-0.0677 -0.444993,-0.278275 -0.133134,-0.212121 -0.182003,-0.384202 -0.03294,-0.173628 -0.06853,-0.539904 z m 2.424467,-7.807014 q -0.324504,0.465559 -0.274996,0.97516 0.04951,0.5096 0.457555,0.903993 0.422425,0.37692 0.995726,0.321224 0.589226,-0.05724 0.947127,-0.509972 0.373826,-0.454275 0.322771,-0.979801 -0.05105,-0.525526 -0.47348,-0.902446 -0.423972,-0.392845 -1.045048,-0.332508 -0.605151,0.05879 -0.929655,0.52435 z m 8.23406,-6.118628 q 0.01987,-0.367464 0.04534,-0.542344 0.04232,-0.189992 0.167109,-0.423597 0.246993,-0.419278 1.2695,-0.364002 0.974577,0.05268 1.190908,0.49701 0.114858,0.246559 0.12047,0.439143 0.02159,0.193447 0.0017,0.560911 l -0.399885,7.397199 q -0.03109,0.57516 0.05613,0.740109 0.08809,0.148972 0.407621,0.166246 0.33551,0.01814 0.445619,0.05614 0.110973,0.02202 0.264694,0.142496 0.308306,0.224971 0.258212,1.151618 -0.05441,1.00653 -0.386037,1.21293 -0.43094,0.265124 -1.98629,-0.01124 -1.221566,-0.22627 -1.553619,-0.901178 -0.405026,-0.807041 -0.312612,-2.516544 z m 12.570317,5.090928 q 0.28089,-0.856232 1.423168,-0.61246 0.610258,0.130234 0.887527,0.287568 0.277269,0.157333 0.336712,0.415423 0.07509,0.26143 0.05067,0.452541 -0.0054,0.178803 -0.08224,0.538698 l -1.168771,5.476676 q -0.07681,0.359896 -0.148172,0.540989 -0.05238,0.168784 -0.212004,0.380124 -0.30589,0.360088 -1.166511,0.176424 -0.844973,-0.180325 -1.098866,-0.447192 -0.234907,-0.279175 -0.195027,-0.696032 -0.755948,0.705769 -2.117293,0.415246 -1.345698,-0.287184 -2.239815,-1.770459 -0.894117,-1.483276 -0.546825,-3.110631 0.350631,-1.643002 1.769026,-2.616407 1.437381,-0.985713 2.830022,-0.688511 0.53202,0.113538 0.930081,0.394811 0.398062,0.281274 0.533454,0.49013 0.13873,0.19321 0.21487,0.373062 z m -3.542455,2.646949 q -0.110198,0.516372 0.206478,1.025681 0.320016,0.493662 0.898979,0.617218 0.578963,0.123556 1.044668,-0.218787 0.481354,-0.339002 0.588213,-0.839727 0.110198,-0.516372 -0.171844,-1.03465 -0.266394,-0.514939 -0.892299,-0.648513 -0.610259,-0.130235 -1.094951,0.224416 -0.469045,0.357989 -0.579244,0.874362 z m 14.604196,0.194 q 1.46185,0.650379 1.92588,2.205254 0.48515,1.546761 -0.23026,3.154796 l -1.14467,2.572857 q -0.14959,0.336226 -0.25687,0.498641 -0.0862,0.154299 -0.27954,0.313432 -0.38027,0.303647 -1.31585,-0.112596 -1.037914,-0.461769 -0.958077,-1.074195 0.02285,-0.287538 0.243982,-0.784567 l 1.144667,-2.572857 q 0.266658,-0.599359 0.0654,-1.091675 -0.186638,-0.485813 -0.771379,-0.745965 -0.570121,-0.253647 -1.091675,-0.0654 -0.506935,0.194753 -0.760583,0.764875 l -1.15117,2.587476 q -0.149588,0.336225 -0.25687,0.49864 -0.08616,0.1543 -0.294161,0.306928 -0.365643,0.310151 -1.301228,-0.106092 -0.920965,-0.409738 -0.950022,-0.895491 -0.0048,-0.264804 0.03753,-0.438615 0.06343,-0.181926 0.213014,-0.518152 l 2.302341,-5.174951 q 0.143083,-0.321607 0.229243,-0.475907 0.107283,-0.162415 0.315284,-0.315043 0.367254,-0.27441 1.28822,0.135329 0.891729,0.396731 0.946801,0.824009 0.03562,0.313553 -0.120471,0.664397 0.104001,-0.07631 0.393209,-0.175302 0.289209,-0.09899 0.531279,-0.131386 0.646616,-0.115097 1.245976,0.151558 z m 10.78993,6.441821 q 1.27995,0.96007 1.38546,2.579276 0.12791,1.616007 -0.92817,3.023949 l -1.68972,2.252708 q -0.22082,0.294388 -0.36162,0.42878 -0.11841,0.131194 -0.34242,0.243181 -0.43841,0.211176 -1.25757,-0.403268 -0.90877,-0.68165 -0.69434,-1.260838 0.0864,-0.275196 0.41284,-0.710378 l 1.68973,-2.252707 q 0.39363,-0.524779 0.30725,-1.049584 -0.0736,-0.515204 -0.58555,-0.899232 -0.49918,-0.374427 -1.04958,-0.307257 -0.5376,0.07677 -0.91203,0.57595 l -1.69933,2.265507 q -0.22081,0.294388 -0.36162,0.42878 -0.11841,0.131194 -0.35521,0.233581 -0.42561,0.220777 -1.24478,-0.393668 -0.80637,-0.604844 -0.72634,-1.08484 0.0544,-0.259197 0.13442,-0.419193 0.10241,-0.163194 0.32323,-0.457582 l 3.39865,-4.531014 q 0.21121,-0.281588 0.32962,-0.412782 0.14081,-0.134392 0.37761,-0.236779 0.41921,-0.185577 1.22558,0.419267 0.78077,0.585642 0.73914,1.01444 -0.0352,0.313598 -0.26563,0.620786 0.1184,-0.05119 0.4224,-0.08318 0.304,-0.03198 0.5472,-0.0096 0.656,0.03204 1.18078,0.425664 z m 4.58821,5.876428 q 0.26811,-0.252073 0.4073,-0.360973 0.1618,-0.108203 0.41337,-0.191001 0.45652,-0.121755 1.15794,0.624289 0.52607,0.559534 0.5471,0.978988 0.0231,0.351604 -0.30398,0.681093 -0.10561,0.121255 -0.32709,0.329489 l -4.07993,3.835904 q -0.26811,0.252074 -0.42991,0.360277 -0.13919,0.1089 -0.40172,0.18004 -0.44556,0.133413 -1.14698,-0.612632 -0.69046,-0.734388 -0.52916,-1.193497 0.0981,-0.245995 0.20444,-0.389866 0.11727,-0.132214 0.39703,-0.395247 z m 3.95393,-0.11581 q -0.23991,0.07184 -0.51809,-0.08389 -0.27818,-0.155723 -0.62889,-0.528746 -0.33975,-0.361365 -0.47804,-0.648605 -0.13829,-0.287241 -0.0511,-0.544892 0.0981,-0.245995 0.20444,-0.389866 0.12893,-0.143173 0.39704,-0.395247 0.26811,-0.252074 0.40729,-0.360974 0.16181,-0.108203 0.40172,-0.18004 0.46818,-0.132715 1.1696,0.613329 0.69046,0.734388 0.5182,1.181841 -0.0872,0.257651 -0.2161,0.400825 -0.10631,0.143871 -0.37442,0.395944 -0.26811,0.252074 -0.42991,0.360277 -0.13919,0.1089 -0.40172,0.18004 z m 4.07241,7.893479 q 0.88034,1.336042 0.4326,2.895688 -0.42556,1.564204 -1.89521,2.532574 l -2.35143,1.549391 q -0.30729,0.202477 -0.48522,0.281397 -0.15577,0.08348 -0.40444,0.113201 -0.48398,0.05064 -1.04739,-0.804422 -0.62504,-0.94859 -0.22754,-1.421279 0.1743,-0.22982 0.62856,-0.529134 l 2.35143,-1.549392 q 0.54778,-0.360938 0.64379,-0.884065 0.10481,-0.509767 -0.24733,-1.044184 -0.34333,-0.521056 -0.88406,-0.643786 -0.53193,-0.109369 -1.05299,0.233962 l -2.36479,1.558195 q -0.30729,0.202477 -0.48522,0.281396 -0.15577,0.08348 -0.41324,0.09984 -0.47518,0.06401 -1.03859,-0.791062 -0.55462,-0.841706 -0.31713,-1.266443 0.13878,-0.225573 0.26814,-0.349131 0.15152,-0.119001 0.45881,-0.321478 l 4.72959,-3.11639 q 0.29393,-0.193674 0.4497,-0.277151 0.17793,-0.07892 0.4354,-0.09528 0.45726,-0.03304 1.01187,0.808668 0.53701,0.814986 0.35296,1.204509 -0.13909,0.283262 -0.45974,0.494542 0.12874,-0.0082 0.42567,0.06442 0.29693,0.0726 0.51826,0.17586 0.6066,0.251777 0.96754,0.799555 z m -1.07405,14.435531 q -0.96481,-0.280743 -1.44095,-1.520449 -0.47614,-1.239706 0.24023,-2.766037 0.73705,-1.517131 2.26055,-2.102272 1.52349,-0.58514 3.09236,0.06348 1.56886,0.64862 2.06795,1.948071 0.19505,0.507831 0.1615,1.000622 -0.0186,0.487054 -0.12554,0.69952 -0.0862,0.221665 -0.18626,0.362912 0.43542,-0.115818 0.74205,0.05778 0.32731,0.182802 0.55104,0.765314 0.22373,0.582513 0.23737,0.885785 0.0136,0.303272 -0.17024,0.493875 -0.16322,0.199804 -0.32178,0.277843 -0.15282,0.09298 -0.49636,0.22492 L 123.5678,59.6229 q -1.71766,0.659717 -3.22213,-0.133613 -1.51941,-0.787594 -2.09308,-2.281215 -0.43598,-1.135153 -0.27917,-2.378009 0.15681,-1.242856 0.60489,-1.414956 0.58251,-0.22373 1.2027,0.05226 0.42266,0.163318 0.59952,0.266787 0.18259,0.118405 0.2629,0.327512 0.0803,0.209107 -0.0129,0.50199 -0.27728,0.929196 0.044,1.765624 0.218,0.567576 0.80376,0.753945 0.58577,0.186369 1.21309,-0.05457 z m 2.02586,-3.828928 q -0.47796,0.183574 -0.72288,0.706132 -0.23919,0.537496 -0.0327,1.075199 0.21226,0.55264 0.73828,0.761956 0.54095,0.203579 1.00398,0.02574 0.47796,-0.183573 0.74929,-0.681996 0.28627,-0.50416 0.0625,-1.086673 -0.22373,-0.582512 -0.76469,-0.786091 -0.54095,-0.203579 -1.03385,-0.01427 z"
       id="text4"
       style="font-size:16px;font-family:'Fredoka One';-inkscape-font-specification:'Fredoka One, Normal';text-align:center;letter-spacing:1px;text-anchor:middle;fill:#054b4b;stroke:#054b4b;stroke-width:0.6;stroke-linecap:square;paint-order:fill markers stroke"
       transform="translate(0,-2)"
       aria-label="oupla planning" /><path
       style="display:inline;opacity:0.308;fill:#ffffff;fill-opacity:0;stroke:#d312ef;stroke-width:0;stroke-linecap:round;stroke-linejoin:bevel;stroke-dasharray:none;stroke-opacity:1;paint-order:fill markers stroke"
       d="M 29.286643,91.431141 C 6.3482572,7.2197005 139.84739,-0.88842365 124.23945,92.928844"
       id="path11"
       sodipodi:nodetypes="cc" /></g></svg>
